<svg width="165" height="177" viewBox="0 0 165 177" fill="none" xmlns="http://www.w3.org/2000/svg">
<path fill-rule="evenodd" clip-rule="evenodd" d="M115.052 77.3104C128.128 77.3104 140.028 82.3454 148.918 90.5824C147.856 100.484 143.168 109.142 136.986 113.263C133.246 115.756 132.236 120.809 134.729 124.548C137.222 128.288 142.274 129.299 146.014 126.806C152.687 122.357 157.777 115.684 161.063 107.953C163.533 113.863 164.897 120.35 164.897 127.155C164.897 154.684 142.58 177 115.052 177C99.36 177 85.3617 169.749 76.225 158.415C72.5849 159.164 68.7069 159.298 64.7975 158.899C55.6836 157.97 46.1404 154.132 38.4126 148.055C30.6778 141.973 24.6577 133.561 22.8198 123.444C20.9753 113.29 23.3936 101.694 32.0361 89.3853C32.6708 88.4813 33.9182 88.263 34.8221 88.8977C35.7261 89.5325 35.9444 90.7798 35.3097 91.6838C27.1674 103.28 25.1351 113.809 26.7554 122.729C28.3824 131.685 33.7426 139.294 40.885 144.911C48.0344 150.532 56.8652 154.069 65.2034 154.92C68.112 155.217 70.9294 155.185 73.5792 154.815C68.2905 146.901 65.2069 137.388 65.2069 127.155C65.2069 99.6267 87.5232 77.3104 115.052 77.3104Z" fill="#ffac9d"/>
<path fill-rule="evenodd" clip-rule="evenodd" d="M138.194 75.1438C138.362 73.1757 138.448 71.1841 138.448 69.1724C138.448 62.8023 137.587 56.6333 135.975 50.7755C137.619 51.7993 139.143 52.898 140.553 54.0602C147.892 60.1103 152.246 67.9738 154.143 76.2328C157.973 92.9052 151.757 110.793 140.391 118.37C139.472 118.983 139.223 120.225 139.836 121.144C140.449 122.063 141.69 122.311 142.609 121.698C155.657 113 162.156 93.2497 158.041 75.3371C155.966 66.3035 151.181 57.6378 143.097 50.9737C140.466 48.8044 137.496 46.8571 134.175 45.1812C124.42 18.8037 99.0439 0 69.2759 0C31.0731 0 0.103516 30.9695 0.103516 69.1724C0.103516 86.0741 6.16537 101.56 16.2336 113.575C16.9304 104.67 20.3766 95.3096 27.0129 85.8581C29.5955 82.1797 34.671 81.2916 38.3493 83.8743C42.0277 86.457 42.9158 91.5325 40.3331 95.2108C32.6188 106.198 31.3848 115.433 33.0019 122.654C33.5464 125.086 34.4445 127.423 35.6473 129.635C42.5967 133.508 50.2833 136.218 58.4436 137.502C57.5439 133.519 57.069 129.375 57.069 125.121C57.069 94.2213 82.1179 69.1724 113.017 69.1724C122.073 69.1724 130.627 71.324 138.194 75.1438Z" fill="white"/>
</svg>
